<mxfile host="Electron" agent="Mozilla/5.0 (Macintosh; Intel Mac OS X 10_15_7) AppleWebKit/537.36 (KHTML, like Gecko) draw.io/27.0.5 Chrome/134.0.6998.205 Electron/35.3.0 Safari/537.36" version="27.0.5">
  <diagram name="第 1 页" id="ZM6fw2YqvrPGsymlK2yL">
    <mxGraphModel dx="642" dy="549" grid="1" gridSize="10" guides="1" tooltips="1" connect="1" arrows="1" fold="1" page="1" pageScale="1" pageWidth="827" pageHeight="1169" math="0" shadow="0">
      <root>
        <mxCell id="0" />
        <mxCell id="1" parent="0" />
        <mxCell id="BDhbp1N8KHOmZ9S23rwb-111" value="" style="rounded=0;whiteSpace=wrap;html=1;shadow=1;" parent="1" vertex="1">
          <mxGeometry x="527.5" y="462.5" width="127.5" height="47.5" as="geometry" />
        </mxCell>
        <mxCell id="Lz3G1h3IM7PsPDBPRDpE-31" value="" style="rounded=1;whiteSpace=wrap;html=1;fillColor=#ffe6cc;strokeColor=#d79b00;" parent="1" vertex="1">
          <mxGeometry x="221.25" y="72.5" width="210" height="180" as="geometry" />
        </mxCell>
        <mxCell id="Lz3G1h3IM7PsPDBPRDpE-1" value="" style="rounded=1;whiteSpace=wrap;html=1;" parent="1" vertex="1">
          <mxGeometry x="140" y="290" width="150" height="90" as="geometry" />
        </mxCell>
        <mxCell id="Lz3G1h3IM7PsPDBPRDpE-2" value="" style="shape=note;whiteSpace=wrap;html=1;backgroundOutline=1;darkOpacity=0.05;size=24;fillColor=#f5f5f5;fontColor=#333333;strokeColor=#666666;" parent="1" vertex="1">
          <mxGeometry x="190" y="295" width="70" height="70" as="geometry" />
        </mxCell>
        <mxCell id="Lz3G1h3IM7PsPDBPRDpE-3" value="" style="rounded=0;whiteSpace=wrap;html=1;fillColor=#f5f5f5;fontColor=#333333;strokeColor=#666666;" parent="1" vertex="1">
          <mxGeometry x="70" y="110" width="40" height="410" as="geometry" />
        </mxCell>
        <mxCell id="Lz3G1h3IM7PsPDBPRDpE-4" value="&lt;font face=&quot;宋体-简&quot;&gt;发送状态表&lt;/font&gt;" style="rounded=0;whiteSpace=wrap;html=1;" parent="1" vertex="1">
          <mxGeometry x="140" y="305" width="40" height="60" as="geometry" />
        </mxCell>
        <mxCell id="Lz3G1h3IM7PsPDBPRDpE-5" value="&lt;font face=&quot;Times New Roman&quot;&gt;Frame&lt;/font&gt;" style="rounded=0;whiteSpace=wrap;html=1;" parent="1" vertex="1">
          <mxGeometry x="70" y="320" width="40" height="30" as="geometry" />
        </mxCell>
        <mxCell id="Lz3G1h3IM7PsPDBPRDpE-7" value="&lt;font face=&quot;Times New Roman&quot;&gt;&lt;b&gt;0号CPU核心&lt;/b&gt;&lt;/font&gt;" style="text;html=1;align=center;verticalAlign=middle;whiteSpace=wrap;rounded=0;" parent="1" vertex="1">
          <mxGeometry x="150" y="390" width="71.25" height="30" as="geometry" />
        </mxCell>
        <mxCell id="Lz3G1h3IM7PsPDBPRDpE-8" value="" style="shape=note;whiteSpace=wrap;html=1;backgroundOutline=1;darkOpacity=0.05;size=24;fillColor=#f5f5f5;fontColor=#333333;strokeColor=#666666;" parent="1" vertex="1">
          <mxGeometry x="195" y="300" width="70" height="70" as="geometry" />
        </mxCell>
        <mxCell id="Lz3G1h3IM7PsPDBPRDpE-9" value="" style="shape=note;whiteSpace=wrap;html=1;backgroundOutline=1;darkOpacity=0.05;size=24;fillColor=#f5f5f5;fontColor=#333333;strokeColor=#666666;" parent="1" vertex="1">
          <mxGeometry x="200" y="305" width="70" height="70" as="geometry" />
        </mxCell>
        <mxCell id="Lz3G1h3IM7PsPDBPRDpE-10" value="&lt;span style=&quot;font-family: &amp;quot;Times New Roman&amp;quot;;&quot;&gt;suirs&lt;/span&gt;" style="rounded=0;whiteSpace=wrap;html=1;" parent="1" vertex="1">
          <mxGeometry x="210" y="330" width="40" height="20" as="geometry" />
        </mxCell>
        <mxCell id="Lz3G1h3IM7PsPDBPRDpE-11" value="&lt;span style=&quot;font-family: &amp;quot;Times New Roman&amp;quot;;&quot;&gt;suist&lt;/span&gt;" style="rounded=0;whiteSpace=wrap;html=1;" parent="1" vertex="1">
          <mxGeometry x="210" y="350" width="40" height="20" as="geometry" />
        </mxCell>
        <mxCell id="Lz3G1h3IM7PsPDBPRDpE-12" value="" style="endArrow=none;dashed=1;html=1;dashPattern=1 3;strokeWidth=2;rounded=0;exitX=0;exitY=0.5;exitDx=0;exitDy=0;entryX=1;entryY=0.5;entryDx=0;entryDy=0;" parent="1" source="Lz3G1h3IM7PsPDBPRDpE-4" target="Lz3G1h3IM7PsPDBPRDpE-5" edge="1">
          <mxGeometry width="50" height="50" relative="1" as="geometry">
            <mxPoint x="190" y="700" as="sourcePoint" />
            <mxPoint x="80" y="335" as="targetPoint" />
          </mxGeometry>
        </mxCell>
        <mxCell id="Lz3G1h3IM7PsPDBPRDpE-13" value="" style="rounded=1;whiteSpace=wrap;html=1;fillColor=#f8cecc;strokeColor=#b85450;" parent="1" vertex="1">
          <mxGeometry x="260" y="430" width="150" height="90" as="geometry" />
        </mxCell>
        <mxCell id="Lz3G1h3IM7PsPDBPRDpE-14" value="&lt;font face=&quot;Times New Roman&quot;&gt;MMIO&lt;/font&gt;" style="rounded=0;whiteSpace=wrap;html=1;" parent="1" vertex="1">
          <mxGeometry x="70" y="490" width="40" height="30" as="geometry" />
        </mxCell>
        <mxCell id="Lz3G1h3IM7PsPDBPRDpE-15" value="" style="shape=process;whiteSpace=wrap;html=1;backgroundOutline=1;" parent="1" vertex="1">
          <mxGeometry x="260" y="462.5" width="150" height="25" as="geometry" />
        </mxCell>
        <mxCell id="Lz3G1h3IM7PsPDBPRDpE-16" value="" style="endArrow=none;dashed=1;html=1;dashPattern=1 3;strokeWidth=2;rounded=0;exitX=-0.015;exitY=0.82;exitDx=0;exitDy=0;entryX=1;entryY=0.5;entryDx=0;entryDy=0;exitPerimeter=0;" parent="1" source="Lz3G1h3IM7PsPDBPRDpE-13" target="Lz3G1h3IM7PsPDBPRDpE-14" edge="1">
          <mxGeometry width="50" height="50" relative="1" as="geometry">
            <mxPoint x="360" y="420" as="sourcePoint" />
            <mxPoint x="410" y="370" as="targetPoint" />
          </mxGeometry>
        </mxCell>
        <mxCell id="Lz3G1h3IM7PsPDBPRDpE-17" value="&lt;font face=&quot;Times New Roman&quot;&gt;hartid&lt;/font&gt;" style="rounded=0;whiteSpace=wrap;html=1;" parent="1" vertex="1">
          <mxGeometry x="274" y="462.5" width="46" height="25" as="geometry" />
        </mxCell>
        <mxCell id="Lz3G1h3IM7PsPDBPRDpE-18" value="&lt;font face=&quot;Times New Roman&quot;&gt;pending&lt;/font&gt;" style="text;html=1;align=center;verticalAlign=middle;whiteSpace=wrap;rounded=0;" parent="1" vertex="1">
          <mxGeometry x="324" y="460" width="60" height="30" as="geometry" />
        </mxCell>
        <mxCell id="Lz3G1h3IM7PsPDBPRDpE-19" value="&lt;font face=&quot;宋体-简&quot;&gt;接收状态表&lt;/font&gt;" style="text;html=1;align=center;verticalAlign=middle;whiteSpace=wrap;rounded=0;" parent="1" vertex="1">
          <mxGeometry x="275" y="430" width="120" height="30" as="geometry" />
        </mxCell>
        <mxCell id="Lz3G1h3IM7PsPDBPRDpE-20" value="&lt;font face=&quot;Times New Roman&quot;&gt;&lt;b&gt;UINTC&lt;/b&gt;&lt;/font&gt;" style="text;html=1;align=center;verticalAlign=middle;whiteSpace=wrap;rounded=0;" parent="1" vertex="1">
          <mxGeometry x="305" y="490" width="60" height="30" as="geometry" />
        </mxCell>
        <mxCell id="Lz3G1h3IM7PsPDBPRDpE-21" value="" style="rounded=1;whiteSpace=wrap;html=1;" parent="1" vertex="1">
          <mxGeometry x="390" y="275" width="207.5" height="130" as="geometry" />
        </mxCell>
        <mxCell id="Lz3G1h3IM7PsPDBPRDpE-23" value="" style="shape=note;whiteSpace=wrap;html=1;backgroundOutline=1;darkOpacity=0.05;size=19;fillColor=#f5f5f5;fontColor=#333333;strokeColor=#666666;" parent="1" vertex="1">
          <mxGeometry x="398.5" y="300" width="69" height="70" as="geometry" />
        </mxCell>
        <mxCell id="Lz3G1h3IM7PsPDBPRDpE-24" value="" style="shape=note;whiteSpace=wrap;html=1;backgroundOutline=1;darkOpacity=0.05;size=19;fillColor=#f5f5f5;fontColor=#333333;strokeColor=#666666;" parent="1" vertex="1">
          <mxGeometry x="403.5" y="305" width="69" height="70" as="geometry" />
        </mxCell>
        <mxCell id="Lz3G1h3IM7PsPDBPRDpE-25" value="" style="shape=note;whiteSpace=wrap;html=1;backgroundOutline=1;darkOpacity=0.05;size=19;fillColor=#f5f5f5;fontColor=#333333;strokeColor=#666666;" parent="1" vertex="1">
          <mxGeometry x="408.5" y="310" width="69" height="70" as="geometry" />
        </mxCell>
        <mxCell id="Lz3G1h3IM7PsPDBPRDpE-26" value="&lt;span style=&quot;font-family: &amp;quot;Times New Roman&amp;quot;;&quot;&gt;suirs&lt;/span&gt;" style="rounded=0;whiteSpace=wrap;html=1;" parent="1" vertex="1">
          <mxGeometry x="408.5" y="340" width="35" height="20" as="geometry" />
        </mxCell>
        <mxCell id="Lz3G1h3IM7PsPDBPRDpE-27" value="&lt;span style=&quot;font-family: &amp;quot;Times New Roman&amp;quot;;&quot;&gt;suist&lt;/span&gt;" style="rounded=0;whiteSpace=wrap;html=1;" parent="1" vertex="1">
          <mxGeometry x="442.5" y="340" width="35" height="20" as="geometry" />
        </mxCell>
        <mxCell id="Lz3G1h3IM7PsPDBPRDpE-28" value="&lt;font face=&quot;Times New Roman&quot;&gt;uip&lt;/font&gt;" style="rounded=0;whiteSpace=wrap;html=1;" parent="1" vertex="1">
          <mxGeometry x="409" y="360" width="35" height="20" as="geometry" />
        </mxCell>
        <mxCell id="Lz3G1h3IM7PsPDBPRDpE-29" value="&lt;font face=&quot;Times New Roman&quot;&gt;utvec&lt;/font&gt;" style="rounded=0;whiteSpace=wrap;html=1;" parent="1" vertex="1">
          <mxGeometry x="442.5" y="360" width="35" height="20" as="geometry" />
        </mxCell>
        <mxCell id="Lz3G1h3IM7PsPDBPRDpE-30" value="&lt;font face=&quot;宋体-简&quot;&gt;中断处理入口&lt;/font&gt;" style="rounded=1;whiteSpace=wrap;html=1;fillColor=#d5e8d4;strokeColor=#82b366;" parent="1" vertex="1">
          <mxGeometry x="510" y="365" width="77.5" height="30" as="geometry" />
        </mxCell>
        <mxCell id="Lz3G1h3IM7PsPDBPRDpE-32" value="&lt;font face=&quot;Times New Roman&quot;&gt;&lt;b&gt;TAIC&lt;/b&gt;&lt;/font&gt;" style="text;html=1;align=center;verticalAlign=middle;whiteSpace=wrap;rounded=0;" parent="1" vertex="1">
          <mxGeometry x="231.25" y="75" width="60" height="30" as="geometry" />
        </mxCell>
        <mxCell id="Lz3G1h3IM7PsPDBPRDpE-34" value="" style="endArrow=classic;html=1;rounded=0;exitX=0.5;exitY=1;exitDx=0;exitDy=0;entryX=0;entryY=0.5;entryDx=0;entryDy=0;" parent="1" source="Lz3G1h3IM7PsPDBPRDpE-11" target="Lz3G1h3IM7PsPDBPRDpE-15" edge="1">
          <mxGeometry width="50" height="50" relative="1" as="geometry">
            <mxPoint x="286" y="190" as="sourcePoint" />
            <mxPoint x="336" y="140" as="targetPoint" />
            <Array as="points">
              <mxPoint x="230" y="475" />
            </Array>
          </mxGeometry>
        </mxCell>
        <mxCell id="Lz3G1h3IM7PsPDBPRDpE-35" value="&lt;font face=&quot;Times New Roman&quot;&gt;&lt;i&gt;uipi send&lt;/i&gt;&lt;/font&gt;" style="text;html=1;align=center;verticalAlign=middle;whiteSpace=wrap;rounded=0;" parent="1" vertex="1">
          <mxGeometry x="230" y="390" width="60" height="30" as="geometry" />
        </mxCell>
        <mxCell id="Lz3G1h3IM7PsPDBPRDpE-37" value="" style="endArrow=classic;html=1;rounded=0;exitX=1;exitY=0.5;exitDx=0;exitDy=0;entryX=0;entryY=0.5;entryDx=0;entryDy=0;" parent="1" source="Lz3G1h3IM7PsPDBPRDpE-29" target="Lz3G1h3IM7PsPDBPRDpE-30" edge="1">
          <mxGeometry width="50" height="50" relative="1" as="geometry">
            <mxPoint x="616" y="225" as="sourcePoint" />
            <mxPoint x="666" y="175" as="targetPoint" />
            <Array as="points">
              <mxPoint x="496" y="370" />
              <mxPoint x="496" y="380" />
            </Array>
          </mxGeometry>
        </mxCell>
        <mxCell id="Lz3G1h3IM7PsPDBPRDpE-38" value="" style="rounded=0;whiteSpace=wrap;html=1;fillColor=#f5f5f5;fontColor=#333333;strokeColor=#666666;" parent="1" vertex="1">
          <mxGeometry x="329.75" y="95" width="92.5" height="125" as="geometry" />
        </mxCell>
        <mxCell id="BDhbp1N8KHOmZ9S23rwb-39" value="" style="endArrow=classic;html=1;rounded=0;exitX=0.5;exitY=0;exitDx=0;exitDy=0;entryX=0.5;entryY=1;entryDx=0;entryDy=0;" parent="1" source="Lz3G1h3IM7PsPDBPRDpE-1" target="BDhbp1N8KHOmZ9S23rwb-91" edge="1">
          <mxGeometry width="50" height="50" relative="1" as="geometry">
            <mxPoint x="280" y="290" as="sourcePoint" />
            <mxPoint x="302.5" y="215" as="targetPoint" />
            <Array as="points">
              <mxPoint x="215" y="270" />
              <mxPoint x="300" y="270" />
            </Array>
          </mxGeometry>
        </mxCell>
        <mxCell id="BDhbp1N8KHOmZ9S23rwb-42" value="" style="rounded=0;whiteSpace=wrap;html=1;" parent="1" vertex="1">
          <mxGeometry x="517.5" y="295" width="10" height="25" as="geometry" />
        </mxCell>
        <mxCell id="BDhbp1N8KHOmZ9S23rwb-48" value="" style="rounded=0;whiteSpace=wrap;html=1;" parent="1" vertex="1">
          <mxGeometry x="527.5" y="295" width="10" height="25" as="geometry" />
        </mxCell>
        <mxCell id="BDhbp1N8KHOmZ9S23rwb-49" value="" style="rounded=0;whiteSpace=wrap;html=1;" parent="1" vertex="1">
          <mxGeometry x="537.5" y="295" width="10" height="25" as="geometry" />
        </mxCell>
        <mxCell id="BDhbp1N8KHOmZ9S23rwb-52" value="" style="rounded=0;whiteSpace=wrap;html=1;" parent="1" vertex="1">
          <mxGeometry x="547.5" y="295" width="10" height="25" as="geometry" />
        </mxCell>
        <mxCell id="BDhbp1N8KHOmZ9S23rwb-53" value="" style="rounded=0;whiteSpace=wrap;html=1;" parent="1" vertex="1">
          <mxGeometry x="557.5" y="295" width="10" height="25" as="geometry" />
        </mxCell>
        <mxCell id="BDhbp1N8KHOmZ9S23rwb-54" value="" style="rounded=0;whiteSpace=wrap;html=1;" parent="1" vertex="1">
          <mxGeometry x="567.5" y="295" width="10" height="25" as="geometry" />
        </mxCell>
        <mxCell id="BDhbp1N8KHOmZ9S23rwb-55" value="&lt;font face=&quot;宋体-简&quot;&gt;队列引用&lt;/font&gt;" style="text;html=1;align=center;verticalAlign=middle;whiteSpace=wrap;rounded=0;" parent="1" vertex="1">
          <mxGeometry x="511.25" y="315" width="70" height="30" as="geometry" />
        </mxCell>
        <mxCell id="BDhbp1N8KHOmZ9S23rwb-58" value="&lt;font face=&quot;宋体-简&quot;&gt;接收状态表&lt;/font&gt;" style="rounded=0;whiteSpace=wrap;html=1;" parent="1" vertex="1">
          <mxGeometry x="284.75" y="92.5" width="30" height="60" as="geometry" />
        </mxCell>
        <mxCell id="BDhbp1N8KHOmZ9S23rwb-59" value="" style="rounded=0;whiteSpace=wrap;html=1;" parent="1" vertex="1">
          <mxGeometry x="344.75" y="145" width="10" height="25" as="geometry" />
        </mxCell>
        <mxCell id="BDhbp1N8KHOmZ9S23rwb-60" value="" style="rounded=0;whiteSpace=wrap;html=1;" parent="1" vertex="1">
          <mxGeometry x="354.75" y="145" width="10" height="25" as="geometry" />
        </mxCell>
        <mxCell id="BDhbp1N8KHOmZ9S23rwb-61" value="" style="rounded=0;whiteSpace=wrap;html=1;" parent="1" vertex="1">
          <mxGeometry x="364.75" y="145" width="10" height="25" as="geometry" />
        </mxCell>
        <mxCell id="BDhbp1N8KHOmZ9S23rwb-62" value="" style="rounded=0;whiteSpace=wrap;html=1;" parent="1" vertex="1">
          <mxGeometry x="374.75" y="145" width="10" height="25" as="geometry" />
        </mxCell>
        <mxCell id="BDhbp1N8KHOmZ9S23rwb-63" value="" style="rounded=0;whiteSpace=wrap;html=1;" parent="1" vertex="1">
          <mxGeometry x="384.75" y="145" width="10" height="25" as="geometry" />
        </mxCell>
        <mxCell id="BDhbp1N8KHOmZ9S23rwb-64" value="" style="rounded=0;whiteSpace=wrap;html=1;" parent="1" vertex="1">
          <mxGeometry x="394.75" y="145" width="10" height="25" as="geometry" />
        </mxCell>
        <mxCell id="BDhbp1N8KHOmZ9S23rwb-71" value="" style="rounded=0;whiteSpace=wrap;html=1;" parent="1" vertex="1">
          <mxGeometry x="344.75" y="187.5" width="10" height="25" as="geometry" />
        </mxCell>
        <mxCell id="BDhbp1N8KHOmZ9S23rwb-72" value="" style="rounded=0;whiteSpace=wrap;html=1;" parent="1" vertex="1">
          <mxGeometry x="354.75" y="187.5" width="10" height="25" as="geometry" />
        </mxCell>
        <mxCell id="BDhbp1N8KHOmZ9S23rwb-73" value="" style="rounded=0;whiteSpace=wrap;html=1;" parent="1" vertex="1">
          <mxGeometry x="364.75" y="187.5" width="10" height="25" as="geometry" />
        </mxCell>
        <mxCell id="BDhbp1N8KHOmZ9S23rwb-74" value="" style="rounded=0;whiteSpace=wrap;html=1;" parent="1" vertex="1">
          <mxGeometry x="374.75" y="187.5" width="10" height="25" as="geometry" />
        </mxCell>
        <mxCell id="BDhbp1N8KHOmZ9S23rwb-75" value="" style="rounded=0;whiteSpace=wrap;html=1;" parent="1" vertex="1">
          <mxGeometry x="384.75" y="187.5" width="10" height="25" as="geometry" />
        </mxCell>
        <mxCell id="BDhbp1N8KHOmZ9S23rwb-76" value="" style="rounded=0;whiteSpace=wrap;html=1;" parent="1" vertex="1">
          <mxGeometry x="394.75" y="187.5" width="10" height="25" as="geometry" />
        </mxCell>
        <mxCell id="BDhbp1N8KHOmZ9S23rwb-83" value="" style="rounded=0;whiteSpace=wrap;html=1;" parent="1" vertex="1">
          <mxGeometry x="344.75" y="105" width="10" height="25" as="geometry" />
        </mxCell>
        <mxCell id="BDhbp1N8KHOmZ9S23rwb-84" value="" style="rounded=0;whiteSpace=wrap;html=1;" parent="1" vertex="1">
          <mxGeometry x="354.75" y="105" width="10" height="25" as="geometry" />
        </mxCell>
        <mxCell id="BDhbp1N8KHOmZ9S23rwb-85" value="" style="rounded=0;whiteSpace=wrap;html=1;" parent="1" vertex="1">
          <mxGeometry x="364.75" y="105" width="10" height="25" as="geometry" />
        </mxCell>
        <mxCell id="BDhbp1N8KHOmZ9S23rwb-86" value="" style="rounded=0;whiteSpace=wrap;html=1;" parent="1" vertex="1">
          <mxGeometry x="374.75" y="105" width="10" height="25" as="geometry" />
        </mxCell>
        <mxCell id="BDhbp1N8KHOmZ9S23rwb-87" value="" style="rounded=0;whiteSpace=wrap;html=1;" parent="1" vertex="1">
          <mxGeometry x="384.75" y="105" width="10" height="25" as="geometry" />
        </mxCell>
        <mxCell id="BDhbp1N8KHOmZ9S23rwb-88" value="" style="rounded=0;whiteSpace=wrap;html=1;" parent="1" vertex="1">
          <mxGeometry x="394.75" y="105" width="10" height="25" as="geometry" />
        </mxCell>
        <mxCell id="BDhbp1N8KHOmZ9S23rwb-90" value="&lt;font face=&quot;宋体-简&quot;&gt;中断处理入口&lt;/font&gt;" style="rounded=1;whiteSpace=wrap;html=1;textDirection=vertical-rl;fillColor=#d5e8d4;strokeColor=#82b366;" parent="1" vertex="1">
          <mxGeometry x="233.5" y="112.5" width="27.75" height="90" as="geometry" />
        </mxCell>
        <mxCell id="BDhbp1N8KHOmZ9S23rwb-91" value="&lt;font face=&quot;宋体-简&quot;&gt;发送状态标&lt;/font&gt;" style="rounded=0;whiteSpace=wrap;html=1;" parent="1" vertex="1">
          <mxGeometry x="284.75" y="162.5" width="30" height="60" as="geometry" />
        </mxCell>
        <mxCell id="BDhbp1N8KHOmZ9S23rwb-92" value="" style="endArrow=classic;html=1;rounded=0;exitX=0;exitY=0.5;exitDx=0;exitDy=0;" parent="1" source="BDhbp1N8KHOmZ9S23rwb-91" edge="1">
          <mxGeometry width="50" height="50" relative="1" as="geometry">
            <mxPoint x="121.25" y="232.5" as="sourcePoint" />
            <mxPoint x="260.25" y="192.5" as="targetPoint" />
          </mxGeometry>
        </mxCell>
        <mxCell id="BDhbp1N8KHOmZ9S23rwb-93" value="" style="endArrow=classic;html=1;rounded=0;exitX=1.02;exitY=0.116;exitDx=0;exitDy=0;entryX=0;entryY=0.5;entryDx=0;entryDy=0;exitPerimeter=0;" parent="1" source="BDhbp1N8KHOmZ9S23rwb-90" target="BDhbp1N8KHOmZ9S23rwb-58" edge="1">
          <mxGeometry width="50" height="50" relative="1" as="geometry">
            <mxPoint x="151.25" y="172.5" as="sourcePoint" />
            <mxPoint x="201.25" y="122.5" as="targetPoint" />
          </mxGeometry>
        </mxCell>
        <mxCell id="BDhbp1N8KHOmZ9S23rwb-95" value="" style="endArrow=classic;html=1;rounded=0;exitX=1;exitY=0.5;exitDx=0;exitDy=0;entryX=0;entryY=0.5;entryDx=0;entryDy=0;" parent="1" source="BDhbp1N8KHOmZ9S23rwb-58" target="BDhbp1N8KHOmZ9S23rwb-83" edge="1">
          <mxGeometry width="50" height="50" relative="1" as="geometry">
            <mxPoint x="441.25" y="102.5" as="sourcePoint" />
            <mxPoint x="491.25" y="52.5" as="targetPoint" />
          </mxGeometry>
        </mxCell>
        <mxCell id="BDhbp1N8KHOmZ9S23rwb-96" value="" style="endArrow=classic;html=1;rounded=0;exitX=1;exitY=0.5;exitDx=0;exitDy=0;entryX=0;entryY=0.5;entryDx=0;entryDy=0;" parent="1" source="BDhbp1N8KHOmZ9S23rwb-58" target="BDhbp1N8KHOmZ9S23rwb-59" edge="1">
          <mxGeometry width="50" height="50" relative="1" as="geometry">
            <mxPoint x="325.25" y="132.5" as="sourcePoint" />
            <mxPoint x="355.25" y="127.5" as="targetPoint" />
          </mxGeometry>
        </mxCell>
        <mxCell id="BDhbp1N8KHOmZ9S23rwb-97" value="" style="endArrow=classic;html=1;rounded=0;exitX=1;exitY=0.5;exitDx=0;exitDy=0;entryX=0;entryY=0.5;entryDx=0;entryDy=0;" parent="1" source="BDhbp1N8KHOmZ9S23rwb-58" target="BDhbp1N8KHOmZ9S23rwb-71" edge="1">
          <mxGeometry width="50" height="50" relative="1" as="geometry">
            <mxPoint x="325.25" y="132.5" as="sourcePoint" />
            <mxPoint x="355.25" y="167.5" as="targetPoint" />
          </mxGeometry>
        </mxCell>
        <mxCell id="BDhbp1N8KHOmZ9S23rwb-98" value="" style="curved=1;endArrow=classic;html=1;rounded=0;entryX=0.5;entryY=0;entryDx=0;entryDy=0;exitX=1;exitY=0.5;exitDx=0;exitDy=0;" parent="1" source="BDhbp1N8KHOmZ9S23rwb-64" target="BDhbp1N8KHOmZ9S23rwb-71" edge="1">
          <mxGeometry width="50" height="50" relative="1" as="geometry">
            <mxPoint x="401.25" y="172.5" as="sourcePoint" />
            <mxPoint x="451.25" y="272.5" as="targetPoint" />
            <Array as="points">
              <mxPoint x="431.25" y="172.5" />
              <mxPoint x="391.25" y="182.5" />
              <mxPoint x="351.25" y="172.5" />
            </Array>
          </mxGeometry>
        </mxCell>
        <mxCell id="BDhbp1N8KHOmZ9S23rwb-99" value="" style="endArrow=none;dashed=1;html=1;dashPattern=1 3;strokeWidth=2;rounded=0;exitX=0.75;exitY=0;exitDx=0;exitDy=0;entryX=0.995;entryY=0.527;entryDx=0;entryDy=0;entryPerimeter=0;" parent="1" source="BDhbp1N8KHOmZ9S23rwb-42" target="Lz3G1h3IM7PsPDBPRDpE-38" edge="1">
          <mxGeometry width="50" height="50" relative="1" as="geometry">
            <mxPoint x="590" y="220" as="sourcePoint" />
            <mxPoint x="650" y="160" as="targetPoint" />
            <Array as="points">
              <mxPoint x="523" y="160" />
            </Array>
          </mxGeometry>
        </mxCell>
        <mxCell id="BDhbp1N8KHOmZ9S23rwb-100" value="&lt;font face=&quot;Times New Roman&quot;&gt;MMIO&lt;/font&gt;" style="rounded=0;whiteSpace=wrap;html=1;" parent="1" vertex="1">
          <mxGeometry x="70" y="147.5" width="40" height="30" as="geometry" />
        </mxCell>
        <mxCell id="BDhbp1N8KHOmZ9S23rwb-101" value="" style="endArrow=classic;html=1;rounded=0;exitX=1;exitY=0.5;exitDx=0;exitDy=0;entryX=0.5;entryY=1;entryDx=0;entryDy=0;" parent="1" source="Lz3G1h3IM7PsPDBPRDpE-15" target="Lz3G1h3IM7PsPDBPRDpE-28" edge="1">
          <mxGeometry width="50" height="50" relative="1" as="geometry">
            <mxPoint x="400" y="480" as="sourcePoint" />
            <mxPoint x="450" y="430" as="targetPoint" />
            <Array as="points">
              <mxPoint x="427" y="475" />
            </Array>
          </mxGeometry>
        </mxCell>
        <mxCell id="BDhbp1N8KHOmZ9S23rwb-103" value="" style="endArrow=none;dashed=1;html=1;dashPattern=1 3;strokeWidth=2;rounded=0;exitX=1;exitY=0.5;exitDx=0;exitDy=0;" parent="1" source="BDhbp1N8KHOmZ9S23rwb-100" edge="1">
          <mxGeometry width="50" height="50" relative="1" as="geometry">
            <mxPoint x="170" y="170" as="sourcePoint" />
            <mxPoint x="220" y="163" as="targetPoint" />
          </mxGeometry>
        </mxCell>
        <mxCell id="BDhbp1N8KHOmZ9S23rwb-104" value="&lt;b style=&quot;&quot;&gt;&lt;font face=&quot;宋体-简&quot;&gt;物理地址空间&lt;/font&gt;&lt;/b&gt;" style="text;html=1;align=center;verticalAlign=middle;whiteSpace=wrap;rounded=0;" parent="1" vertex="1">
          <mxGeometry x="70" y="82.5" width="110" height="30" as="geometry" />
        </mxCell>
        <mxCell id="BDhbp1N8KHOmZ9S23rwb-105" value="&lt;font face=&quot;Times New Roman&quot;&gt;&lt;i&gt;taic signal&lt;/i&gt;&lt;/font&gt;" style="text;html=1;align=center;verticalAlign=middle;whiteSpace=wrap;rounded=0;" parent="1" vertex="1">
          <mxGeometry x="185" y="240" width="60" height="30" as="geometry" />
        </mxCell>
        <mxCell id="BDhbp1N8KHOmZ9S23rwb-106" value="" style="endArrow=none;dashed=1;html=1;dashPattern=1 3;strokeWidth=2;rounded=0;" parent="1" edge="1">
          <mxGeometry width="50" height="50" relative="1" as="geometry">
            <mxPoint x="532.5" y="477.5" as="sourcePoint" />
            <mxPoint x="582.5" y="477.5" as="targetPoint" />
          </mxGeometry>
        </mxCell>
        <mxCell id="BDhbp1N8KHOmZ9S23rwb-107" value="" style="endArrow=classic;html=1;rounded=0;" parent="1" edge="1">
          <mxGeometry width="50" height="50" relative="1" as="geometry">
            <mxPoint x="582.5" y="497.5" as="sourcePoint" />
            <mxPoint x="532.5" y="497.5" as="targetPoint" />
          </mxGeometry>
        </mxCell>
        <mxCell id="BDhbp1N8KHOmZ9S23rwb-109" value="&lt;font face=&quot;宋体-简&quot;&gt;数据流&lt;/font&gt;" style="text;html=1;align=center;verticalAlign=middle;whiteSpace=wrap;rounded=0;" parent="1" vertex="1">
          <mxGeometry x="581.25" y="480" width="60" height="30" as="geometry" />
        </mxCell>
        <mxCell id="BDhbp1N8KHOmZ9S23rwb-112" value="&lt;font face=&quot;宋体-简&quot;&gt;就绪队列&lt;/font&gt;" style="text;html=1;align=center;verticalAlign=middle;whiteSpace=wrap;rounded=0;" parent="1" vertex="1">
          <mxGeometry x="343.75" y="222.5" width="60" height="30" as="geometry" />
        </mxCell>
        <mxCell id="qnPV3hZGICYjSzgBgndu-1" value="&lt;font face=&quot;Times New Roman&quot;&gt;&lt;b&gt;1号CPU核心&lt;/b&gt;&lt;/font&gt;" style="text;html=1;align=center;verticalAlign=middle;whiteSpace=wrap;rounded=0;" vertex="1" parent="1">
          <mxGeometry x="476.25" y="410" width="71.25" height="30" as="geometry" />
        </mxCell>
        <mxCell id="qnPV3hZGICYjSzgBgndu-2" value="&lt;font face=&quot;宋体-简&quot;&gt;绑定&lt;/font&gt;" style="text;html=1;align=center;verticalAlign=middle;whiteSpace=wrap;rounded=0;" vertex="1" parent="1">
          <mxGeometry x="581.25" y="462.5" width="60" height="30" as="geometry" />
        </mxCell>
      </root>
    </mxGraphModel>
  </diagram>
</mxfile>
